<svg t="1582791085073" class="icon" viewBox="0 0 1098 1024" version="1.1" xmlns="http://www.w3.org/2000/svg" p-id="2004" width="200" height="200"><path d="M685.430634 737.779512l4.245854 1.098927c133.819317 33.367415 280.17639-91.460683 326.905756-278.852683 43.682341-175.178927-15.235122-343.015024-132.470634-391.367805 7.292878 4.870244 7.942244 13.461854 0.799219 21.553951 0 0-40.410537 37.363512-53.372878 107.844683-16.683707 90.661463 10.115122 198.531122-10.739512 282.299317-20.904585 83.793171-98.378927 191.637854-98.378927 191.637854-7.842341 11.613659-25.025561 18.107317-38.362536 14.785561l-3.24683-0.824195c2.67239 17.482927 4.195902 34.816 4.620488 51.82439z m-163.815024-344.788292c2.372683-17.782634 5.794341-35.740098 10.289951-53.797464 46.70439-187.392 193.086439-312.220098 326.930732-278.852683 5.569561 1.373659 11.014244 3.022049 16.359024 4.89522-13.112195-2.372683-29.47122 3.571512-37.213658 14.485853 0 0-34.865951 40.485463-51.449757 107.095415-18.781659 75.276488 18.981463 173.805268-8.241951 282.973659-22.802732 91.410732-84.167805 163.465366-103.498927 184.444878-13.586732-59.61678-40.060878-120.282537-79.622244-176.777366a525.062244 525.062244 0 0 0-73.55317-84.467512z m161.542244 395.688585c159.019707 35.415415 329.128585-104.897561 381.877073-316.565854C1118.457756 257.998049 1031.542634 51.949268 870.949463 11.863415c-160.593171-40.035902-334.098732 101.101268-387.496585 315.242146-2.422634 9.765463-4.570537 19.530927-6.418732 29.246439-117.635122-85.266732-257.598439-103.64878-356.551805-34.316488-135.617561 94.907317-142.885463 318.439024-16.309073 499.237464 126.601366 180.773463 339.118829 250.380488 474.711415 155.423219 60.341073-42.233756 95.281951-109.942634 104.298146-188.01639zM176.727415 371.337366c-11.313951 7.917268-18.057366 25.400195-14.785561 38.412488 0 0 9.041171 55.395902 49.951219 113.788878 46.204878 66.010537 147.23122 104.84761 214.240781 200.554146 67.009561 95.681561 76.874927 215.04 76.874926 215.04 1.773268 13.636683 12.337951 18.307122 23.576976 10.439805l6.643512-4.645463c11.239024-7.892293 17.532878-24.925659 13.811512-38.28761 0 0-33.617171-134.218927-85.041951-207.672195-51.449756-73.428293-152.576-127.050927-212.092878-202.052683-46.279805-58.268098-49.077073-115.237463-49.077073-115.237464-1.998049-13.611707-12.737561-18.307122-24.101463-10.339902z" fill="#ffffff" p-id="2005"></path></svg>