<svg t="1583396854592" class="icon" viewBox="0 0 1024 1024" version="1.1" xmlns="http://www.w3.org/2000/svg" p-id="2939" width="200" height="200"><path d="M898.74 147.08h16v16h-16z" fill="#e6e6e6" p-id="2940"></path><path d="M899.39 147.73h14.7v14.7h-14.7z" fill="#e6e6e6" p-id="2941"></path><path d="M914.1 162.44h-14.72v-14.72h14.72z m-14.7 0h14.68v-14.7H899.4z" fill="#e6e6e6" p-id="2942"></path><path d="M914.74 147.08l-16 16M898.75 163.08l-0.01-0.01 16-16 0.01 0.01-16 16z" fill="#e6e6e6" p-id="2943"></path><path d="M908.344 146.14l7.363 7.402-10.457 10.403-7.363-7.402z" fill="#e6e6e6" p-id="2944"></path><path d="M512 979.5A467.62 467.62 0 0 1 330 81.24a467.62 467.62 0 0 1 364 861.52 464.6 464.6 0 0 1-182 36.74z m0-910a442.62 442.62 0 0 0-172.24 850.23 442.62 442.62 0 0 0 344.48-815.46A439.71 439.71 0 0 0 512 69.5z m165.81 720.56A112.58 112.58 0 0 1 598 757L494.88 654a216.1 216.1 0 0 1-124.27-8.48c-44.44-16.91-81.5-48-107.18-89.83-29.66-48.37-38-108.42-22.74-164.76a12.5 12.5 0 0 1 20.91-5.58l90.1 90.11a9.28 9.28 0 0 0 13.1 0L476 364.17a9.28 9.28 0 0 0 0-13.1l-89-89a12.5 12.5 0 0 1 5.66-20.93 217.21 217.21 0 0 1 108.25-0.7 210.75 210.75 0 0 1 152.36 152.44A216.12 216.12 0 0 1 654.34 494l103.33 103.33a112.93 112.93 0 0 1 0 159.71 112.58 112.58 0 0 1-79.86 33.02zM510.09 633.81l105.55 105.55A87.93 87.93 0 1 0 740 615L634.41 509.44a15.45 15.45 0 0 1-2.5-1.86 12.5 12.5 0 0 1-3.61-12.43A191.18 191.18 0 0 0 629 399a185.75 185.75 0 0 0-134.2-134.35 191.28 191.28 0 0 0-73.64-3.83l72.56 72.57a34.3 34.3 0 0 1 0 48.46L382.47 493.09a34.31 34.31 0 0 1-48.46 0l-73.76-73.77c-6.35 43 2.2 86.92 24.48 123.24 22.77 37.1 55.53 64.61 94.76 79.54a190.86 190.86 0 0 0 116.43 5.83 12.5 12.5 0 0 1 12.28 3.44 15.06 15.06 0 0 1 1.89 2.44zM748.83 748.2z" fill="#e6e6e6" p-id="2945"></path><path d="M748.83 748.2a100.43 100.43 0 0 1-142 0L500.27 641.67c-0.49-0.49-0.63-1.16-1.1-1.66-81.63 21.89-174.32-8.17-225.09-90.91-28.41-46.33-35.3-103.23-21.33-155l90.1 90.11a21.77 21.77 0 0 0 30.78 0L484.88 373a21.77 21.77 0 0 0 0-30.78l-89-89C462.7 235.6 536.64 252 589 304.35c52.59 52.61 69.26 127 51.34 194 0.58 0.53 1.35 0.71 1.92 1.27l106.57 106.55a100.43 100.43 0 0 1 0 142.03z" fill="#e6e6e6" p-id="2946"></path><path d="M677.81 790.06A112.57 112.57 0 0 1 598 757L494.88 654a216.09 216.09 0 0 1-124.27-8.48c-44.44-16.91-81.5-48-107.18-89.83-29.66-48.37-38-108.42-22.74-164.76a12.5 12.5 0 0 1 20.91-5.58l90.1 90.11a9.28 9.28 0 0 0 13.1 0L476 364.17a9.28 9.28 0 0 0 0-13.1l-89-89a12.5 12.5 0 0 1 5.66-20.93 217.21 217.21 0 0 1 108.25-0.7 210.75 210.75 0 0 1 152.36 152.44A216.12 216.12 0 0 1 654.34 494l103.33 103.33a112.93 112.93 0 0 1 0 159.71 112.59 112.59 0 0 1-79.86 33.02zM510.09 633.81l105.55 105.55a88 88 0 0 0 124.35 0A87.93 87.93 0 0 0 740 615L634.41 509.44a15.47 15.47 0 0 1-2.5-1.86 12.5 12.5 0 0 1-3.61-12.43A191.18 191.18 0 0 0 629 399a185.75 185.75 0 0 0-134.2-134.35 191.3 191.3 0 0 0-73.64-3.83l72.56 72.57a34.3 34.3 0 0 1 0 48.46L382.47 493.09a34.3 34.3 0 0 1-48.46 0l-73.76-73.77c-6.34 43 2.2 86.92 24.48 123.24 22.77 37.1 55.53 64.61 94.76 79.54a190.86 190.86 0 0 0 116.43 5.83 12.5 12.5 0 0 1 12.28 3.44 15.06 15.06 0 0 1 1.89 2.44zM748.83 748.2z" fill="#e6e6e6" p-id="2947"></path><path d="M748.83 748.2a100.43 100.43 0 0 1-142 0L500.27 641.67c-0.49-0.49-0.63-1.16-1.1-1.66-81.63 21.89-174.32-8.17-225.09-90.91-28.41-46.33-35.3-103.23-21.33-155l90.1 90.11a21.77 21.77 0 0 0 30.78 0L484.88 373a21.77 21.77 0 0 0 0-30.78l-89-89C462.7 235.6 536.64 252 589 304.35c52.59 52.61 69.26 127 51.34 194 0.58 0.53 1.35 0.71 1.92 1.27l106.57 106.55a100.43 100.43 0 0 1 0 142.03z" fill="#e6e6e6" p-id="2948"></path><path d="M677.81 790.06A112.57 112.57 0 0 1 598 757L494.88 654a216.09 216.09 0 0 1-124.27-8.48c-44.44-16.91-81.5-48-107.18-89.83-29.66-48.37-38-108.42-22.74-164.76a12.5 12.5 0 0 1 20.91-5.58l90.1 90.11a9.28 9.28 0 0 0 13.1 0L476 364.17a9.28 9.28 0 0 0 0-13.1l-89-89a12.5 12.5 0 0 1 5.66-20.93 217.21 217.21 0 0 1 108.25-0.7 210.75 210.75 0 0 1 152.36 152.44A216.12 216.12 0 0 1 654.34 494l103.33 103.33a112.93 112.93 0 0 1 0 159.71 112.59 112.59 0 0 1-79.86 33.02zM510.09 633.81l105.55 105.55a88 88 0 0 0 124.35 0A87.93 87.93 0 0 0 740 615L634.41 509.44a15.47 15.47 0 0 1-2.5-1.86 12.5 12.5 0 0 1-3.61-12.43A191.18 191.18 0 0 0 629 399a185.75 185.75 0 0 0-134.2-134.35 191.3 191.3 0 0 0-73.64-3.83l72.56 72.57a34.3 34.3 0 0 1 0 48.46L382.47 493.09a34.3 34.3 0 0 1-48.46 0l-73.76-73.77c-6.34 43 2.2 86.92 24.48 123.24 22.77 37.1 55.53 64.61 94.76 79.54a190.86 190.86 0 0 0 116.43 5.83 12.5 12.5 0 0 1 12.28 3.44 15.06 15.06 0 0 1 1.89 2.44zM748.83 748.2z" fill="#e6e6e6" p-id="2949"></path></svg>