<svg t="1582872561785" class="icon" viewBox="0 0 1024 1024" version="1.1" xmlns="http://www.w3.org/2000/svg" p-id="30948" width="200" height="200"><path d="M283.3 532.4c9.9 0 18-9.1 18-19.1s-8.1-18-18-18-18 8.1-18 18v2.2c0 9.9 8 16.9 18 16.9zM740.8 783.8c-8.4 0-15.2 5.9-17.1 13.7H301.3V576.3c0-9.9-8.1-18-18-18s-18 8.1-18 18v302c0 35.7 29.1 64.8 64.7 64.8h364c35.7 0 64.8-29 64.8-64.8v-76.5c0-9.9-8.1-18-18-18zM694 907.1H330c-15.9 0-28.7-12.9-28.7-28.8v-44.8h421.5v44.8c0 15.9-13 28.8-28.8 28.8zM757.9 349.5l-8.9-34.9c-2.4-9.6-12.2-15.4-21.9-13-9.6 2.5-15.5 12.3-13 21.9l3.2 12.4H306.9l38.4-144.1h333.3l20.4 76.7c2.6 9.6 12.4 15.3 22 12.8 9.6-2.6 15.3-12.4 12.8-22l-24-90c-0.1-0.2-0.2-0.3-0.2-0.5V98.9c0-9.9-8.1-18-18-18H332.4c-9.9 0-18 8.1-18 18v69.8l-0.3 0.6-48 180.1c-0.3 1.2-0.8 5.9-0.8 7.2V456c0 9.9 8.1 18 18 18s18-8.1 18-18v-81.5h421.5V736c0 9.9 8.1 18 18 18s18-8.1 18-18V356.6c0-1.3-0.6-5.9-0.9-7.1zM350.4 116.9h323.3v35H350.4v-35z" fill="#ffffff" p-id="30949"></path><path d="M610.3 714.8h9.3c6.6 0 12-5.4 12-12V493.9c0-6.6-5.4-12-12-12h-28.3c-4.8 0-9.1 2.8-11 7.2L516 635.6c-1 2.3-2.2 5.6-3.8 9.8-1.1-2.9-2.4-6-3.9-9.4l-63-146.9c-1.9-4.4-6.2-7.3-11-7.3h-30.1c-6.6 0-12 5.4-12 12v208.9c0 6.6 5.4 12 12 12h11.7c6.6 0 12-5.4 12-12V574.5c0-1.7 2.2-2 5.1-2 3.6 0 5.5 0.2 6.3 1.9L499.2 705h0.1c2 4.9 6.8 8.4 12.5 8.4s10.5-3.5 12.5-8.4l60.9-130.6c0.8-1.9 3.3-2.1 6.7-2.1 2.8 0 6.5-0.2 6.5 2v128.3c-0.1 6.8 5.3 12.2 11.9 12.2z" fill="#ffffff" p-id="30950"></path></svg>