<svg t="1582872392221" class="icon" viewBox="0 0 1024 1024" version="1.1" xmlns="http://www.w3.org/2000/svg" p-id="29579" width="200" height="200"><path d="M606.1 601h-54.6V436.6c0-23.9-19.4-43.3-43.3-43.3H354c-23.9 0-43.3 19.4-43.3 43.3V601h-61.9c-26.5 0-48.1 21.6-48.1 48.1v192.7h453.5V649.1c-0.1-26.5-21.6-48.1-48.1-48.1zM345 436.6c0-5 4-9 9-9h154.2c5 0 9 4 9 9v163.2h-28.3V490.6c0-9.5-7.7-17.2-17.1-17.2-9.5 0-17.2 7.7-17.2 17.2v109.2H345V436.6z m62.1 370.9h-29V704.6c0-9.5-7.7-17.2-17.1-17.2-9.5 0-17.2 7.7-17.2 17.2v102.8H235V649.1c0-7.6 6.2-13.8 13.8-13.8h158.4v172.2z m212.7 0h-21.7V704.6c0-9.5-7.7-17.2-17.1-17.2-9.5 0-17.1 7.7-17.1 17.2v102.8H447.7V635.3h158.4c7.6 0 13.8 6.2 13.8 13.8v158.4zM888.9 506.5l-1.1-1.3c-13.4-15.1-22.1-23.8-29.1-30.8-12.7-12.7-20.3-20.4-45.1-55.6-11.8-16.7-23.4-33.9-34.7-51.3-11.7-18-16.2-38.7-12.7-58.2 7.5-41.7-5.5-91.3-34.8-132.7-23.9-33.7-62.9-57.2-107.1-64.4-33.1-5.4-64.6-0.7-82.2 12.2C505.7 151 488.2 242 538.6 313c30.5 43.2 74.6 72.2 117.9 77.7 23.1 2.9 43.1 13.6 56.3 30 12.4 15.5 24.9 31.6 36.9 47.8 29.3 39.4 32.4 44.9 44 65.4 4 7.1 8.9 15.8 16.1 28l0.9 1.4c3.5 4.8 13.7 16.3 31.3 19.1 2.6 0.4 5.3 0.7 7.9 0.7 10 0 19.6-3.1 27.5-8.9l0.7-0.5c10.4-7.5 17.3-18.7 19.3-31.4 2.1-12.6-0.9-25.3-8.5-35.8zM863.6 537c-0.6 3.6-2.5 6.7-5.4 8.9l-0.5 0.3c-3 2.2-6.6 3.1-10.3 2.4-4.6-0.7-7.5-3.6-8.7-5-6.8-11.6-11.5-19.9-15.3-26.6-12.1-21.4-15.7-27.8-46.3-68.9-12.3-16.5-25-32.9-37.7-48.8-7.9-9.9-17.5-18.3-28.4-25-14.8-9.2-31.9-15.2-50.4-17.5l-2.1-0.3c-33.3-5-67.6-28.4-92.2-63.2-41.2-58.1-22.9-127.4-4.2-141.2 8.2-6 29.4-10.5 56.4-6 35.2 5.7 66 24.1 84.6 50.4 22.4 31.7 33.4 68.5 30.1 99.9-0.2 2.3-0.6 4.6-1 6.9-3 16.4-2 33.2 2.5 49.4 3.2 11.6 8.3 22.9 15.2 33.5 11.5 17.8 23.4 35.4 35.4 52.4 26.5 37.6 35.4 46.5 48.9 60 6.9 6.9 14.7 14.8 27.1 28.6 2.1 3 2.9 6.4 2.3 9.8z" fill="#ffffff" p-id="29580"></path></svg>