<svg t="1582791341041" class="icon" viewBox="0 0 1024 1024" version="1.1" xmlns="http://www.w3.org/2000/svg" p-id="2459" width="200" height="200"><path d="M800.76 59.87c-48.863 51.336-229.688 111.113-318.744 148.033-81.319 33.71-314.521 155.955-307.536 391.137 6.985 235.188 134.198 283.384 114.422 363.374 0 0 41.923-22.849 90.735-47.754 162.794-83.07 218.737-51.024 323.402-140.877 105.273-90.371 215.207-194.595 97.72-713.912z m-20.94 522.904c-44.204 155.192-184.9 189.965-284.496 223.765-43.35 14.712-85.774 37.392-117.865 56.765 4.872-56.208 42.518-129.19 130.145-156.375 84.304-26.16 133.616-76.366 147.045-91.515-27.557 24.662-171.407 64.829-188.923 58.09-18.617-7.165-8.8-92.556 58.159-102.674 97.77-14.766 163.52-81.625 163.52-81.625s-176.31 72.078-163.52 36.257c25.391-71.045 147.23-194.904 147.23-194.904-90.736 29.843-253.083 270.12-272.859 288.027-19.78 17.91-30.912-137.593-47.894-169.93-32.095-61.122 18.808 221.264 17.644 274.985-0.873 40.353-34.562 118.427-51.274 154.787-13.596-33.51-52.601-45.871-83.666-176.272C162.496 405.93 387.782 308.19 521.564 253.27 655.34 198.356 770.51 143.436 770.51 143.436s53.515 284.135 9.31 439.338z m-121.406 28.204s-1.259 1.609-3.766 4.436c1.725-1.543 3.012-3.029 3.766-4.436z" p-id="2460" fill="#ffffff"></path></svg>